<svg width="36" height="38" viewBox="0 0 36 38" fill="none" xmlns="http://www.w3.org/2000/svg">
<path d="M0 0.734152C0 0.328691 0.328691 0 0.734151 0H2.71636C10.8256 0 17.3994 6.57381 17.3994 14.683V17.3994C17.3994 17.8048 17.0707 18.1335 16.6652 18.1335H0.734151C0.32869 18.1335 0 17.8048 0 17.3994V0.734152Z" fill="#42D76B"/>
<path d="M18.5007 8.69969C18.5007 3.89498 22.3957 0 27.2004 0C32.0051 0 35.9001 3.89498 35.9001 8.69969V17.3994C35.9001 17.8048 35.5714 18.1335 35.166 18.1335H19.2349C18.8294 18.1335 18.5007 17.8048 18.5007 17.3994V8.69969Z" fill="#42D76B"/>
<path d="M0 20.3677C0 19.9622 0.328691 19.6335 0.734151 19.6335H2.71636C10.8256 19.6335 17.3994 26.2074 17.3994 34.3166V37.0329C17.3994 37.4384 17.0707 37.7671 16.6652 37.7671H14.683C6.57381 37.7671 0 31.1933 0 23.0841V20.3677Z" fill="#42D76B"/>
<path d="M18.5007 23.3043C18.5007 21.277 20.1442 19.6335 22.1715 19.6335H32.2294C34.2567 19.6335 35.9001 21.277 35.9001 23.3043V37.0329C35.9001 37.4384 35.5714 37.7671 35.166 37.7671H19.2349C18.8294 37.7671 18.5007 37.4384 18.5007 37.0329V23.3043Z" fill="#42D76B"/>
<path fill-rule="evenodd" clip-rule="evenodd" d="M27.4567 7.56913C27.3104 7.36351 27.005 7.36351 26.8586 7.56913L23.9147 11.705C23.7417 11.948 23.9155 12.2849 24.2138 12.2849H24.8303L23.4962 13.9387C23.3025 14.1788 23.4734 14.5362 23.7819 14.5362H24.373L23.2876 15.8069C23.0842 16.0451 23.2534 16.4124 23.5668 16.4124H25.5629V18.1243H28.7523V16.4124H30.748C31.0613 16.4124 31.2306 16.0451 31.0271 15.8069L29.9417 14.5362H30.5328C30.8413 14.5362 31.0122 14.1788 30.8185 13.9387L29.4844 12.2849H30.1016C30.3999 12.2849 30.5736 11.948 30.4006 11.705L27.4567 7.56913Z" fill="white"/>
<path d="M27.0533 31.5169C26.9554 31.5169 26.9065 31.4542 26.9065 31.3288C26.9065 31.2034 26.957 31.1407 27.0579 31.1407H29.1319C29.2665 31.1407 29.3338 31.2217 29.3338 31.3838C29.3338 31.5766 29.3139 31.8014 29.2741 32.0583C29.2435 32.2847 29.2023 32.4897 29.1502 32.6732H29.8477C29.9548 32.6732 30.0083 32.7359 30.0083 32.8613C30.0083 32.9837 29.9548 33.0449 29.8477 33.0449H26.5027C26.4048 33.0449 26.3559 32.9837 26.3559 32.8613C26.3559 32.7359 26.4048 32.6732 26.5027 32.6732H28.7786C28.8061 32.4866 28.8214 32.3 28.8245 32.1134V31.5169H27.0533ZM27.1222 33.7928C27.0273 33.7928 26.9799 33.7331 26.9799 33.6138C26.9799 33.4884 27.0289 33.4257 27.1267 33.4257H29.164C29.2772 33.4257 29.3338 33.4961 29.3338 33.6368V34.3159C29.3338 34.4841 29.2726 34.5682 29.1502 34.5682H27.6039V34.8848C27.6039 34.9552 27.6391 34.9904 27.7095 34.9904H29.3292C29.424 34.9904 29.4714 35.0531 29.4714 35.1785C29.4714 35.3008 29.421 35.362 29.32 35.362H27.4158C27.2109 35.362 27.1084 35.2458 27.1084 35.0133V34.6783C27.1084 34.608 27.0992 34.5621 27.0809 34.5407C27.0656 34.5193 27.0396 34.5025 27.0029 34.4902C26.9723 34.4749 26.9432 34.4581 26.9157 34.4397C26.8912 34.4183 26.879 34.3847 26.879 34.3388C26.879 34.247 26.9218 34.2011 27.0074 34.2011H28.8382V33.7928H27.1222ZM32.3025 31.4343C32.2811 31.5567 32.226 31.6821 32.1373 31.8106L33.1697 32.3382C33.2401 32.3811 33.2829 32.4331 33.2982 32.4942C33.3135 32.5554 33.3059 32.6074 33.2753 32.6503C33.2447 32.7023 33.1957 32.7344 33.1284 32.7466C33.0611 32.7588 32.9847 32.7359 32.899 32.6778L31.9079 32.0629L31.807 32.1593C31.5194 32.4071 31.1829 32.6135 30.7975 32.7787C30.6598 32.8399 30.5681 32.8323 30.5222 32.7558C30.4794 32.6763 30.5054 32.6135 30.6002 32.5677C30.8908 32.4086 31.137 32.2266 31.3389 32.0216C31.5408 31.8167 31.6693 31.6316 31.7244 31.4664C31.7366 31.4358 31.732 31.4129 31.7106 31.3976C31.6892 31.3793 31.6479 31.364 31.5867 31.3517C31.498 31.3303 31.4582 31.2783 31.4674 31.1957C31.4766 31.1101 31.5347 31.0672 31.6418 31.0672H31.9997C32.1343 31.0672 32.223 31.107 32.2658 31.1865C32.3086 31.263 32.3209 31.3456 32.3025 31.4343ZM33.6194 33.4119H32.2016V33.5588C32.2016 33.675 32.1878 33.7714 32.1603 33.8478H33.1651C33.2722 33.8478 33.3257 33.9075 33.3257 34.0268C33.3257 34.1491 33.2722 34.2103 33.1651 34.2103H32.7522V34.9628H33.1651C33.2722 34.9628 33.3257 35.024 33.3257 35.1464C33.3257 35.2687 33.2722 35.3299 33.1651 35.3299H30.7333C30.6354 35.3299 30.5864 35.2687 30.5864 35.1464C30.5864 35.024 30.6354 34.9628 30.7333 34.9628H31.16V34.2103H30.7333C30.6354 34.2103 30.5864 34.1491 30.5864 34.0268C30.5864 33.9075 30.6354 33.8478 30.7333 33.8478H31.7106V33.4119H30.2744C30.1765 33.4119 30.1276 33.3492 30.1276 33.2238C30.1276 33.1014 30.1765 33.0403 30.2744 33.0403H33.6194C33.7265 33.0403 33.78 33.1014 33.78 33.2238C33.78 33.3492 33.7265 33.4119 33.6194 33.4119ZM32.2796 34.2103H31.628V34.9628H32.2796V34.2103Z" fill="white"/>
</svg>
