<svg width="123" height="163" viewBox="0 0 123 163" fill="none" xmlns="http://www.w3.org/2000/svg">
<path d="M0 2.53112C0 1.13322 1.13322 0 2.53112 0H8.3119C36.2699 0 58.9344 22.6644 58.9344 50.6224V58.9111C58.9344 60.309 57.8012 61.4422 56.4033 61.4422H2.53112C1.13322 61.4422 0 60.309 0 58.9111V2.53112Z" fill="white"/>
<path fill-rule="evenodd" clip-rule="evenodd" d="M92.4987 0C76.1708 0 62.9343 13.2364 62.9343 29.5644V59.0925C62.9343 60.4904 64.0676 61.6237 65.4655 61.6237H119.532C120.93 61.6237 122.063 60.4904 122.063 59.0925V29.5644C122.063 13.2364 108.827 0 92.4987 0ZM91.3225 25.7431C91.8271 25.0342 92.88 25.0342 93.3845 25.7431L103.354 39.7487C103.95 40.5866 103.351 41.7482 102.323 41.7482H100.261L104.771 47.3388C105.439 48.1666 104.85 49.399 103.786 49.399H101.816L105.479 53.6873C106.18 54.5086 105.596 55.7748 104.516 55.7748H97.7725V61.5926H86.9338V55.7748H80.1907C79.1104 55.7748 78.5268 54.5086 79.2284 53.6873L82.8913 49.399H80.9203C79.8567 49.399 79.2675 48.1666 79.9352 47.3388L84.4452 41.7482H82.3843C81.3559 41.7482 80.7569 40.5866 81.3533 39.7487L91.3225 25.7431Z" fill="white"/>
<path d="M0 69.1547C0 67.7568 1.13322 66.6235 2.53112 66.6235H8.3119C36.2699 66.6235 58.9344 89.288 58.9344 117.246V125.535C58.9344 126.933 57.8012 128.066 56.4033 128.066H50.6225C22.6645 128.066 0 105.401 0 77.4433V69.1547Z" fill="white"/>
<path fill-rule="evenodd" clip-rule="evenodd" d="M62.9343 79.2792C62.9343 72.2896 68.6004 66.6235 75.5899 66.6235H109.408C116.397 66.6235 122.063 72.2896 122.063 79.2791V125.716C122.063 127.114 120.93 128.247 119.532 128.247H65.4655C64.0676 128.247 62.9343 127.114 62.9343 125.716V79.2792ZM109.838 106.464C109.765 106.88 109.578 107.306 109.277 107.742L112.785 109.536C113.024 109.681 113.17 109.858 113.222 110.066C113.274 110.274 113.248 110.45 113.144 110.596C113.04 110.773 112.874 110.882 112.645 110.923C112.416 110.965 112.156 110.887 111.865 110.69L108.497 108.6L108.154 108.927C107.177 109.77 106.034 110.471 104.724 111.033C104.256 111.24 103.944 111.214 103.788 110.955C103.643 110.684 103.731 110.471 104.053 110.315C105.041 109.775 105.878 109.156 106.564 108.46C107.25 107.763 107.686 107.134 107.874 106.573C107.915 106.469 107.9 106.391 107.827 106.339C107.754 106.277 107.614 106.225 107.406 106.183C107.104 106.11 106.969 105.934 107 105.653C107.032 105.362 107.229 105.216 107.593 105.216H108.809C109.267 105.216 109.568 105.351 109.714 105.622C109.859 105.882 109.901 106.162 109.838 106.464ZM114.313 113.184H109.495V113.683C109.495 114.078 109.448 114.406 109.355 114.666H112.77C113.134 114.666 113.316 114.868 113.316 115.274C113.316 115.69 113.134 115.898 112.77 115.898H111.366V118.455H112.77C113.134 118.455 113.316 118.663 113.316 119.079C113.316 119.494 113.134 119.702 112.77 119.702H104.505C104.173 119.702 104.006 119.494 104.006 119.079C104.006 118.663 104.173 118.455 104.505 118.455H105.956V115.898H104.505C104.173 115.898 104.006 115.69 104.006 115.274C104.006 114.868 104.173 114.666 104.505 114.666H107.827V113.184H102.946C102.613 113.184 102.447 112.971 102.447 112.545C102.447 112.129 102.613 111.921 102.946 111.921H114.313C114.677 111.921 114.859 112.129 114.859 112.545C114.859 112.971 114.677 113.184 114.313 113.184ZM109.76 115.898H107.546V118.455H109.76V115.898ZM91.5007 106.105C91.5007 106.531 91.6671 106.744 91.9997 106.744H98.0186V108.772C98.0082 109.406 97.9563 110.04 97.8627 110.674H90.1286C89.7959 110.674 89.6296 110.887 89.6296 111.313C89.6296 111.729 89.7959 111.937 90.1286 111.937H101.496C101.86 111.937 102.042 111.729 102.042 111.313C102.042 110.887 101.86 110.674 101.496 110.674H99.1257C99.3025 110.05 99.4428 109.354 99.5468 108.584C99.6819 107.711 99.7495 106.947 99.7495 106.292C99.7495 105.741 99.5208 105.466 99.0634 105.466H92.0153C91.6723 105.466 91.5007 105.679 91.5007 106.105ZM91.7502 113.87C91.7502 114.276 91.9114 114.479 92.2336 114.479H98.0654V115.866H91.8438C91.5527 115.866 91.4072 116.022 91.4072 116.334C91.4072 116.49 91.4488 116.604 91.5319 116.677C91.6255 116.74 91.7242 116.797 91.8282 116.849C91.9529 116.89 92.0413 116.947 92.0933 117.02C92.1557 117.093 92.1868 117.249 92.1868 117.488V118.626C92.1868 119.416 92.5351 119.811 93.2316 119.811H99.7027C100.046 119.811 100.217 119.604 100.217 119.188C100.217 118.761 100.056 118.548 99.7339 118.548H94.2295C93.9904 118.548 93.8709 118.429 93.8709 118.19V117.114H99.1257C99.5416 117.114 99.7495 116.828 99.7495 116.256V113.948C99.7495 113.47 99.5571 113.231 99.1725 113.231H92.2492C91.9166 113.231 91.7502 113.444 91.7502 113.87Z" fill="white"/>
<path d="M11.2015 149.917H4.81149V147.527H9.72149V146.867H4.74149V145.947H10.8815V148.337H5.97149V148.977H11.2015V149.917ZM10.8515 141.437C10.8515 142.564 10.7648 143.507 10.5915 144.267H11.8815V145.197H3.83149V144.267H9.48149C9.62816 143.707 9.69483 143.071 9.68149 142.357H4.86149V141.437H10.8515ZM19.6738 147.537H13.3038V146.607H15.9038V145.967H12.4838V145.027H20.5338V145.967H17.0738V146.607H19.6738V147.537ZM16.5138 142.807C16.3005 143.294 15.8872 143.704 15.2738 144.037C14.6672 144.364 14.0172 144.574 13.3238 144.667L12.8338 143.757C13.3538 143.704 13.8405 143.587 14.2938 143.407C14.7472 143.227 15.1305 142.971 15.4438 142.637C15.7572 142.297 15.9138 141.914 15.9138 141.487V141.257H17.1238V141.487C17.1238 141.907 17.2938 142.294 17.6338 142.647C17.9805 143.001 18.3838 143.271 18.8438 143.457C19.3038 143.637 19.7605 143.741 20.2138 143.767L19.7138 144.677C19.0605 144.591 18.4172 144.377 17.7838 144.037C17.1505 143.697 16.7272 143.287 16.5138 142.807ZM19.7538 149.907H13.2238V148.977H14.5038L14.3338 147.967L15.5038 147.837L15.6138 148.977H17.2838L17.5238 147.837L18.6538 148.057L18.4138 148.977H19.7538V149.907ZM21.1262 150.187L21.5262 148.167H22.7862L22.0662 150.187H21.1262ZM34.4629 144.607H33.2429V146.587H32.0729V141.127H33.2429V143.667H34.4629V144.607ZM33.2429 149.927H27.4629V147.027H33.2429V149.927ZM32.0629 149.017V147.927H28.6329V149.017H32.0629ZM31.4129 143.487H26.2029V142.577H31.4129V143.487ZM27.5329 142.187V141.277H30.1729V142.187H27.5329ZM30.3629 144.107C30.7629 144.394 30.9629 144.764 30.9629 145.217C30.9629 145.671 30.7629 146.037 30.3629 146.317C29.9629 146.597 29.4562 146.737 28.8429 146.737C28.2229 146.737 27.7096 146.597 27.3029 146.317C26.9029 146.031 26.7029 145.664 26.7029 145.217C26.7029 144.764 26.9029 144.394 27.3029 144.107C27.7096 143.821 28.2229 143.677 28.8429 143.677C29.4562 143.677 29.9629 143.821 30.3629 144.107ZM27.8829 145.217C27.8829 145.397 27.9762 145.551 28.1629 145.677C28.3496 145.797 28.5762 145.857 28.8429 145.857C29.1096 145.857 29.3362 145.797 29.5229 145.677C29.7162 145.551 29.8129 145.397 29.8129 145.217C29.8129 145.031 29.7162 144.877 29.5229 144.757C29.3362 144.637 29.1096 144.577 28.8429 144.577C28.5696 144.577 28.3396 144.637 28.1529 144.757C27.9729 144.871 27.8829 145.024 27.8829 145.217ZM39.1652 142.157C39.1652 143.097 39.1286 143.887 39.0552 144.527H39.7152V141.287H40.8152V149.627H39.7152V145.467H38.8952C38.6552 146.507 38.1986 147.511 37.5252 148.477L36.6052 147.897C37.6052 146.651 38.1019 145.061 38.0952 143.127H37.4252V142.157H39.1652ZM42.5752 150.037H41.4552V141.127H42.5752V150.037ZM37.1452 142.157C37.1519 143.497 37.0319 144.597 36.7852 145.457C36.5386 146.311 36.1386 147.094 35.5852 147.807L34.6852 147.217C35.6119 146.151 36.0752 144.787 36.0752 143.127H35.1852V142.157H37.1452ZM48.7076 144.177H43.5376V143.247H48.7076V144.177ZM44.7876 142.627V141.707H47.5376V142.627H44.7876ZM50.5476 141.127V144.737H51.7876V145.707H50.5476V150.037H49.3676V141.127H50.5476ZM43.9776 146.407C43.9776 145.854 44.1776 145.397 44.5776 145.037C44.9776 144.671 45.4943 144.487 46.1276 144.487C46.7676 144.487 47.2843 144.667 47.6776 145.027C48.0776 145.387 48.2776 145.847 48.2776 146.407C48.2776 146.961 48.0776 147.421 47.6776 147.787C47.2776 148.147 46.7609 148.327 46.1276 148.327C45.4876 148.327 44.9676 148.151 44.5676 147.797C44.1743 147.437 43.9776 146.974 43.9776 146.407ZM45.1176 146.407C45.1176 146.694 45.2109 146.927 45.3976 147.107C45.5909 147.287 45.8343 147.377 46.1276 147.377C46.4476 147.377 46.6943 147.291 46.8676 147.117C47.0476 146.937 47.1376 146.701 47.1376 146.407C47.1376 146.114 47.0409 145.877 46.8476 145.697C46.6609 145.517 46.4209 145.427 46.1276 145.427C45.8343 145.427 45.5909 145.517 45.3976 145.697C45.2109 145.877 45.1176 146.114 45.1176 146.407ZM60.2799 146.457H52.2299V145.517H60.2799V146.457ZM59.2899 144.517H53.3099V141.417H54.4799V143.587H59.2899V144.517ZM59.3499 149.797H53.2599V147.167H54.4199V148.867H59.3499V149.797ZM70.6292 144.507H68.0992V145.387H71.5592V146.327H63.5092V145.387H66.9292V144.507H64.5792V141.337H70.5492V142.267H65.7492V143.577H70.6292V144.507ZM64.4492 147.017H70.5192V150.047H69.3592V147.947H64.4492V147.017ZM79.5416 150.037H78.3616V145.127H76.7516V144.137H78.3616V141.127H79.5416V150.037ZM77.5816 147.177L76.9116 148.057C76.5182 147.817 76.1149 147.454 75.7016 146.967C75.2882 146.474 75.0082 146.004 74.8616 145.557C74.7149 146.064 74.4382 146.571 74.0316 147.077C73.6316 147.577 73.1982 147.954 72.7316 148.207L72.0316 147.347C73.5049 146.387 74.2416 145.017 74.2416 143.237V141.877H75.4416V143.177C75.4416 144.044 75.6282 144.817 76.0016 145.497C76.3749 146.177 76.9016 146.737 77.5816 147.177ZM82.3639 143.827C82.3639 144.167 82.4772 144.447 82.7039 144.667C82.9372 144.887 83.2506 144.997 83.6439 144.997C84.0372 144.997 84.3506 144.887 84.5839 144.667C84.8172 144.447 84.9339 144.167 84.9339 143.827C84.9339 143.501 84.8172 143.231 84.5839 143.017C84.3506 142.797 84.0372 142.687 83.6439 142.687C83.2572 142.687 82.9472 142.797 82.7139 143.017C82.4806 143.231 82.3639 143.501 82.3639 143.827ZM88.3339 141.127V150.037H87.1739V141.127H88.3339ZM81.1639 143.837C81.1639 143.204 81.3906 142.691 81.8439 142.297C82.2972 141.897 82.8972 141.697 83.6439 141.697C84.3906 141.697 84.9872 141.897 85.4339 142.297C85.8872 142.691 86.1139 143.204 86.1139 143.837C86.1139 144.464 85.8872 144.977 85.4339 145.377C84.9872 145.777 84.3906 145.977 83.6439 145.977C82.9039 145.977 82.3039 145.777 81.8439 145.377C81.3906 144.977 81.1639 144.464 81.1639 143.837ZM86.8039 147.757C85.9239 147.871 84.9206 147.957 83.7939 148.017C82.4606 148.071 81.5272 148.094 80.9939 148.087L80.8239 147.087C81.9172 147.087 82.8839 147.071 83.7239 147.037C84.8839 146.997 85.8772 146.924 86.7039 146.817L86.8039 147.757ZM99.4032 149.997H93.0532V147.747H97.9132V147.297H93.0632V146.367H99.0832V148.567H94.2232V149.047H99.4032V149.997ZM99.7432 143.687L99.2432 144.597C98.5765 144.531 97.9499 144.364 97.3632 144.097C96.7832 143.824 96.3699 143.484 96.1232 143.077C95.9032 143.504 95.5099 143.851 94.9432 144.117C94.3832 144.377 93.7365 144.541 93.0032 144.607L92.5232 143.707C93.2365 143.674 93.8532 143.541 94.3732 143.307C94.8999 143.074 95.2432 142.754 95.4032 142.347H92.9232V141.437H99.3332V142.347H96.8732C97.0465 142.747 97.4132 143.067 97.9732 143.307C98.5332 143.547 99.1232 143.674 99.7432 143.687ZM100.143 145.867H92.0932V144.927H100.143V145.867ZM108.116 150.037H106.946V145.567H105.246V144.587H106.946V141.127H108.116V150.037ZM105.276 142.057C105.202 144.917 103.876 147.054 101.296 148.467L100.576 147.587C101.529 147.154 102.319 146.514 102.946 145.667C103.572 144.814 103.926 143.934 104.006 143.027H101.126V142.057H105.276ZM116.418 149.927H110.428V146.917H112.818V146.167H109.398V145.227H117.448V146.167H113.988V146.917H116.418V149.927ZM111.138 144.277C110.585 143.951 110.308 143.534 110.308 143.027C110.308 142.521 110.581 142.111 111.128 141.797C111.681 141.477 112.445 141.317 113.418 141.317C114.398 141.317 115.161 141.477 115.708 141.797C116.261 142.111 116.538 142.521 116.538 143.027C116.538 143.541 116.261 143.957 115.708 144.277C115.161 144.597 114.401 144.757 113.428 144.757C112.455 144.757 111.691 144.597 111.138 144.277ZM111.518 143.037C111.518 143.284 111.685 143.481 112.018 143.627C112.358 143.774 112.825 143.847 113.418 143.847C114.005 143.847 114.471 143.774 114.818 143.627C115.165 143.474 115.338 143.277 115.338 143.037C115.338 142.784 115.168 142.584 114.828 142.437C114.495 142.291 114.025 142.217 113.418 142.217C112.825 142.217 112.358 142.291 112.018 142.437C111.685 142.584 111.518 142.784 111.518 143.037ZM115.268 149.017V147.807H111.588V149.017H115.268Z" fill="white"/>
</svg>
